<svg xmlns="http://www.w3.org/2000/svg" width="240" height="380" viewBox="0 0 240 380">
<defs>
  <marker id="arrowhead" markerWidth="10" markerHeight="7" refX="10" refY="3.5" orient="auto">
    <polygon points="0 0, 10 3.5, 0 7" fill="black"/>
  </marker>
  <marker id="arrowhead-rev" markerWidth="10" markerHeight="7" refX="0" refY="3.5" orient="auto">
    <polygon points="10 0, 0 3.5, 10 7" fill="black"/>
  </marker>
</defs>
<rect width="240" height="380" fill="white"/>
<rect x="20" y="20" width="180" height="120" fill="none" stroke="#888" stroke-width="1" stroke-dasharray="4 2"/>
<text x="28" y="38" font-family="monospace" font-size="12" fill="#666">Frontend</text>
<rect x="20" y="200" width="180" height="120" fill="none" stroke="#888" stroke-width="1" stroke-dasharray="4 2"/>
<text x="28" y="218" font-family="monospace" font-size="12" fill="#666">Backend</text>
<polyline points="110,140 110,180" fill="none" stroke="black" stroke-width="1.5"  marker-end="url(#arrowhead)"/>
<rect x="40" y="60" width="60" height="60" rx="0" fill="white" stroke="black" stroke-width="1.5"/>
<text x="70" y="90" dominant-baseline="central" text-anchor="middle" font-family="monospace" font-size="14">UI</text>
<rect x="110" y="60" width="70" height="60" rx="0" fill="white" stroke="black" stroke-width="1.5"/>
<text x="145" y="90" dominant-baseline="central" text-anchor="middle" font-family="monospace" font-size="14">API</text>
<rect x="40" y="240" width="70" height="60" rx="0" fill="white" stroke="black" stroke-width="1.5"/>
<text x="75" y="270" dominant-baseline="central" text-anchor="middle" font-family="monospace" font-size="14">API</text>
<rect x="120" y="240" width="60" height="60" rx="0" fill="white" stroke="black" stroke-width="1.5"/>
<text x="150" y="270" dominant-baseline="central" text-anchor="middle" font-family="monospace" font-size="14">DB</text>
</svg>